<?xml version="1.0" encoding="UTF-8" standalone="no"?>
<!DOCTYPE svg PUBLIC "-//W3C//DTD SVG 1.1//EN" "http://www.w3.org/Graphics/SVG/1.1/DTD/svg11.dtd">
<!-- Generated by graphviz version 2.40.1 (20161225.0304) --> <!-- Title: G Pages: 1 -->
<!--

digraph G {
    subgraph cluster_a {
        style=invis;
        mid0 [label="", fixedsize="false", width=0, height=0, shape=none];
        
        c0 [label = "C0 compiler\n written in assembly" ];
        c0p [label = "C0 compiler program", shape = parallelogram]
        c0 -> mid0[arrowhead=none];
        mid0 -> c0p;
        "assembler" [shape=parallelogram];
        assembler -> mid0;
        
        {rank=same; c0, mid0, c0p}
    }
    
    subgraph cluster_b {
        style=invis;
        mid1 [label="", fixedsize="false", width=0, height=0, shape=none];
        
        c1 [label = "C1 compiler\n written in C0" ];
        c1p [label = "C1 compiler program", shape = parallelogram]
        c1 -> mid1[arrowhead=none];
        mid1 -> c1p;
        
        {rank=same; c1, mid1, c1p}
    }

    subgraph cluster_c {
        style=invis;
        mid2 [label="", fixedsize="false", width=0, height=0, shape=none];
        
        c2 [label = "C2 compiler\n written in C1" ];
        c2p [label = "C2 compiler program", shape = parallelogram]
        c2 -> mid2[arrowhead=none];
        mid2 -> c2p;
        
        {rank=same; c2, mid2, c2p}
    }

    subgraph cluster_d {
        style=invis;
        midn [label="", fixedsize="false", width=0, height=0, shape=none];
        
        cn [label = "C compiler\n written in Cn" ];
        cnp [label = "C compiler program", shape = parallelogram]
        cn -> midn[arrowhead=none];
        midn -> cnp;
        
        {rank=same; cn, midn, cnp}
    }
    cnn[style=invis];
    c0->c1->c2->cnn->cn[style=invis];
    splines=line;
    c0p:s->mid1[constraint=false];
    c1p:s->mid2[constraint=false];
    c2p:s->midn[constraint=false, style=dotted];
}


-->

<svg width="536pt" height="527pt"
 viewBox="0.00 0.00 536.00 527.33" xmlns="http://www.w3.org/2000/svg" xmlns:xlink="http://www.w3.org/1999/xlink">
<g id="graph0" class="graph" transform="scale(1 1) rotate(0) translate(4 523.3251)">
<title>G</title>
<polygon fill="transparent" stroke="transparent" points="-4,4 -4,-523.3251 532,-523.3251 532,4 -4,4"/>
<g id="clust1" class="cluster">
<title>cluster_a</title>
</g>
<g id="clust3" class="cluster">
<title>cluster_b</title>
</g>
<g id="clust5" class="cluster">
<title>cluster_c</title>
</g>
<g id="clust7" class="cluster">
<title>cluster_d</title>
</g>
<!-- mid0 -->
<g id="node1" class="node">
<title>mid0</title>
</g>
<!-- c0p -->
<g id="node3" class="node">
<title>c0p</title>
<polygon fill="none" stroke="#000000" points="512.1487,-419.9095 292.385,-419.9095 235.8513,-383.9095 455.615,-383.9095 512.1487,-419.9095"/>
<text text-anchor="middle" x="374" y="-397.7095" font-family="Times,serif" font-size="14.00" fill="#000000">C0 compiler program</text>
</g>
<!-- mid0&#45;&gt;c0p -->
<g id="edge2" class="edge">
<title>mid0&#45;&gt;c0p</title>
<path fill="none" stroke="#000000" d="M217.6133,-401.9095C229.7037,-401.9095 241.7942,-401.9095 253.8846,-401.9095"/>
<polygon fill="#000000" stroke="#000000" points="254.0406,-405.4096 264.0406,-401.9095 254.0406,-398.4096 254.0406,-405.4096"/>
</g>
<!-- c0 -->
<g id="node2" class="node">
<title>c0</title>
<ellipse fill="none" stroke="#000000" cx="107" cy="-401.9095" rx="91.1373" ry="29.3315"/>
<text text-anchor="middle" x="107" y="-406.1095" font-family="Times,serif" font-size="14.00" fill="#000000">C0 compiler</text>
<text text-anchor="middle" x="107" y="-389.3095" font-family="Times,serif" font-size="14.00" fill="#000000"> written in assembly</text>
</g>
<!-- c0&#45;&gt;mid0 -->
<g id="edge1" class="edge">
<title>c0&#45;&gt;mid0</title>
<path fill="none" stroke="#000000" d="M198.5234,-401.9095C204.4898,-401.9095 210.4562,-401.9095 216.4226,-401.9095"/>
</g>
<!-- c1 -->
<g id="node6" class="node">
<title>c1</title>
<ellipse fill="none" stroke="#000000" cx="107" cy="-307.0782" rx="66.0604" ry="29.3315"/>
<text text-anchor="middle" x="107" y="-311.2782" font-family="Times,serif" font-size="14.00" fill="#000000">C1 compiler</text>
<text text-anchor="middle" x="107" y="-294.4782" font-family="Times,serif" font-size="14.00" fill="#000000"> written in C0</text>
</g>
<!-- c0&#45;&gt;c1 -->
<!-- mid1 -->
<g id="node5" class="node">
<title>mid1</title>
</g>
<!-- c0p&#45;&gt;mid1 -->
<g id="edge14" class="edge">
<title>c0p:s&#45;&gt;mid1</title>
<path fill="none" stroke="#000000" d="M374,-383.9095C374,-383.9095 239.7029,-327.216 201.8335,-311.2294"/>
<polygon fill="#000000" stroke="#000000" points="203.0961,-307.9634 192.5221,-307.2986 200.3736,-314.4123 203.0961,-307.9634"/>
</g>
<!-- assembler -->
<g id="node4" class="node">
<title>assembler</title>
<polygon fill="none" stroke="#000000" points="289.5842,-503.3251 174.119,-503.3251 144.4158,-467.3251 259.881,-467.3251 289.5842,-503.3251"/>
<text text-anchor="middle" x="217" y="-481.1251" font-family="Times,serif" font-size="14.00" fill="#000000">assembler</text>
</g>
<!-- assembler&#45;&gt;mid0 -->
<g id="edge3" class="edge">
<title>assembler&#45;&gt;mid0</title>
<path fill="none" stroke="#000000" d="M217,-467.2252C217,-450.6162 217,-426.5596 217,-412.7519"/>
<polygon fill="#000000" stroke="#000000" points="220.5001,-412.629 217,-402.629 213.5001,-412.6291 220.5001,-412.629"/>
</g>
<!-- c1p -->
<g id="node7" class="node">
<title>c1p</title>
<polygon fill="none" stroke="#000000" points="487.1487,-325.0782 267.385,-325.0782 210.8513,-289.0782 430.615,-289.0782 487.1487,-325.0782"/>
<text text-anchor="middle" x="349" y="-302.8782" font-family="Times,serif" font-size="14.00" fill="#000000">C1 compiler program</text>
</g>
<!-- mid1&#45;&gt;c1p -->
<g id="edge5" class="edge">
<title>mid1&#45;&gt;c1p</title>
<path fill="none" stroke="#000000" d="M192.6133,-307.0782C204.7037,-307.0782 216.7942,-307.0782 228.8846,-307.0782"/>
<polygon fill="#000000" stroke="#000000" points="229.0406,-310.5783 239.0406,-307.0782 229.0406,-303.5783 229.0406,-310.5783"/>
</g>
<!-- c1&#45;&gt;mid1 -->
<g id="edge4" class="edge">
<title>c1&#45;&gt;mid1</title>
<path fill="none" stroke="#000000" d="M173.0742,-307.0782C179.1857,-307.0782 185.2971,-307.0782 191.4086,-307.0782"/>
</g>
<!-- c2 -->
<g id="node9" class="node">
<title>c2</title>
<ellipse fill="none" stroke="#000000" cx="107" cy="-212.2469" rx="66.0604" ry="29.3315"/>
<text text-anchor="middle" x="107" y="-216.4469" font-family="Times,serif" font-size="14.00" fill="#000000">C2 compiler</text>
<text text-anchor="middle" x="107" y="-199.6469" font-family="Times,serif" font-size="14.00" fill="#000000"> written in C1</text>
</g>
<!-- c1&#45;&gt;c2 -->
<!-- mid2 -->
<g id="node8" class="node">
<title>mid2</title>
</g>
<!-- c1p&#45;&gt;mid2 -->
<g id="edge15" class="edge">
<title>c1p:s&#45;&gt;mid2</title>
<path fill="none" stroke="#000000" d="M349,-289.0782C349,-289.0782 236.0134,-233.7858 201.7395,-217.0132"/>
<polygon fill="#000000" stroke="#000000" points="203.2206,-213.8414 192.7,-212.5895 200.1436,-220.1289 203.2206,-213.8414"/>
</g>
<!-- c2p -->
<g id="node10" class="node">
<title>c2p</title>
<polygon fill="none" stroke="#000000" points="487.1487,-230.2469 267.385,-230.2469 210.8513,-194.2469 430.615,-194.2469 487.1487,-230.2469"/>
<text text-anchor="middle" x="349" y="-208.0469" font-family="Times,serif" font-size="14.00" fill="#000000">C2 compiler program</text>
</g>
<!-- mid2&#45;&gt;c2p -->
<g id="edge7" class="edge">
<title>mid2&#45;&gt;c2p</title>
<path fill="none" stroke="#000000" d="M192.6133,-212.2469C204.7037,-212.2469 216.7942,-212.2469 228.8846,-212.2469"/>
<polygon fill="#000000" stroke="#000000" points="229.0406,-215.747 239.0406,-212.2469 229.0406,-208.747 229.0406,-215.747"/>
</g>
<!-- c2&#45;&gt;mid2 -->
<g id="edge6" class="edge">
<title>c2&#45;&gt;mid2</title>
<path fill="none" stroke="#000000" d="M173.0742,-212.2469C179.1857,-212.2469 185.2971,-212.2469 191.4086,-212.2469"/>
</g>
<!-- cnn -->
<!-- c2&#45;&gt;cnn -->
<!-- midn -->
<g id="node11" class="node">
<title>midn</title>
</g>
<!-- c2p&#45;&gt;midn -->
<g id="edge16" class="edge">
<title>c2p:s&#45;&gt;midn</title>
<path fill="none" stroke="#000000" stroke-dasharray="1,5" d="M349,-194.2469C349,-194.2469 231.9785,-83.3141 199.9947,-52.9944"/>
<polygon fill="#000000" stroke="#000000" points="202.3653,-50.4189 192.7,-46.0792 197.5494,-55.4991 202.3653,-50.4189"/>
</g>
<!-- cnp -->
<g id="node13" class="node">
<title>cnp</title>
<polygon fill="none" stroke="#000000" points="471.9898,-63.4156 263.6144,-63.4156 210.0102,-27.4156 418.3856,-27.4156 471.9898,-63.4156"/>
<text text-anchor="middle" x="341" y="-41.2156" font-family="Times,serif" font-size="14.00" fill="#000000">C compiler program</text>
</g>
<!-- midn&#45;&gt;cnp -->
<g id="edge9" class="edge">
<title>midn&#45;&gt;cnp</title>
<path fill="none" stroke="#000000" d="M192.582,-45.4156C203.8269,-45.4156 215.0718,-45.4156 226.3167,-45.4156"/>
<polygon fill="#000000" stroke="#000000" points="226.6436,-48.9157 236.6436,-45.4156 226.6436,-41.9157 226.6436,-48.9157"/>
</g>
<!-- cn -->
<g id="node12" class="node">
<title>cn</title>
<ellipse fill="none" stroke="#000000" cx="107" cy="-45.4156" rx="66.0604" ry="29.3315"/>
<text text-anchor="middle" x="107" y="-49.6156" font-family="Times,serif" font-size="14.00" fill="#000000">C compiler</text>
<text text-anchor="middle" x="107" y="-32.8156" font-family="Times,serif" font-size="14.00" fill="#000000"> written in Cn</text>
</g>
<!-- cn&#45;&gt;midn -->
<g id="edge8" class="edge">
<title>cn&#45;&gt;midn</title>
<path fill="none" stroke="#000000" d="M173.0742,-45.4156C179.1857,-45.4156 185.2971,-45.4156 191.4086,-45.4156"/>
</g>
<!-- cnn&#45;&gt;cn -->
</g>
</svg>
