<?xml version="1.0" encoding="UTF-8" standalone="no"?>
<!DOCTYPE svg PUBLIC "-//W3C//DTD SVG 1.1//EN" "http://www.w3.org/Graphics/SVG/1.1/DTD/svg11.dtd">
<!-- Generated by graphviz version 2.40.1 (20161225.0304) --> <!-- Title: G Pages: 1 -->
<!--

digraph G {
    rankdir = LR;
    "..." -> "rustc 1.30" -> "rustc 1.31" -> "rustc 1.32"
}


-->
<svg width="465pt" height="44pt" viewBox="0.00 0.00 464.72 44.00" xmlns="http://www.w3.org/2000/svg" xmlns:xlink="http://www.w3.org/1999/xlink"> <g id="graph0" class="graph" transform="scale(1 1) rotate(0) translate(4 40)"> <title>G</title> <polygon fill="transparent" stroke="transparent" points="-4,4 -4,-40 460.7178,-40 460.7178,4 -4,4"/> <!-- ... --> <g id="node1" class="node"> <title>...</title> <ellipse fill="none" stroke="#000000" cx="27" cy="-18" rx="27" ry="18"/> <text text-anchor="middle" x="27" y="-13.8" font-family="Times,serif" font-size="14.00" fill="#000000">...</text> </g> <!-- rustc 1.30 --> <g id="node2" class="node"> <title>rustc 1.30</title> <ellipse fill="none" stroke="#000000" cx="139.1196" cy="-18" rx="49.2396" ry="18"/> <text text-anchor="middle" x="139.1196" y="-13.8" font-family="Times,serif" font-size="14.00" fill="#000000">rustc 1.30</text> </g> <!-- ...&#45;&gt;rustc 1.30 --> <g id="edge1" class="edge"> <title>...&#45;&gt;rustc 1.30</title> <path fill="none" stroke="#000000" d="M54.141,-18C61.9576,-18 70.8071,-18 79.7691,-18"/> <polygon fill="#000000" stroke="#000000" points="79.8863,-21.5001 89.8863,-18 79.8862,-14.5001 79.8863,-21.5001"/> </g> <!-- rustc 1.31 --> <g id="node3" class="node"> <title>rustc 1.31</title> <ellipse fill="none" stroke="#000000" cx="273.3589" cy="-18" rx="49.2396" ry="18"/> <text text-anchor="middle" x="273.3589" y="-13.8" font-family="Times,serif" font-size="14.00" fill="#000000">rustc 1.31</text> </g> <!-- rustc 1.30&#45;&gt;rustc 1.31 --> <g id="edge2" class="edge"> <title>rustc 1.30&#45;&gt;rustc 1.31</title> <path fill="none" stroke="#000000" d="M188.3431,-18C196.642,-18 205.3346,-18 213.8611,-18"/> <polygon fill="#000000" stroke="#000000" points="214.1414,-21.5001 224.1414,-18 214.1413,-14.5001 214.1414,-21.5001"/> </g> <!-- rustc 1.32 --> <g id="node4" class="node"> <title>rustc 1.32</title> <ellipse fill="none" stroke="#000000" cx="407.5982" cy="-18" rx="49.2396" ry="18"/> <text text-anchor="middle" x="407.5982" y="-13.8" font-family="Times,serif" font-size="14.00" fill="#000000">rustc 1.32</text> </g> <!-- rustc 1.31&#45;&gt;rustc 1.32 --> <g id="edge3" class="edge"> <title>rustc 1.31&#45;&gt;rustc 1.32</title> <path fill="none" stroke="#000000" d="M322.5824,-18C330.8813,-18 339.5739,-18 348.1003,-18"/> <polygon fill="#000000" stroke="#000000" points="348.3807,-21.5001 358.3806,-18 348.3806,-14.5001 348.3807,-21.5001"/> </g> </g> </svg>