<?xml version="1.0" encoding="UTF-8" standalone="no"?>
<!DOCTYPE svg PUBLIC "-//W3C//DTD SVG 1.1//EN" "http://www.w3.org/Graphics/SVG/1.1/DTD/svg11.dtd">
<!-- Generated by graphviz version 2.40.1 (20161225.0304) --> <!-- Title: G Pages: 1 -->
<!--

digraph G {
    rankdir = LR;
    source -> machine [label = "compiler"];
    source [label ="Source Code"];
    machine [label = "Machine Code"]
    
    humans[label="what humans understand", color=transparent]
    
    humans->source[color=red];
    
    computers[label="what computers understand", color=transparent]
    
    computers->machine[color=red];
    {rank=same; humans,source}
    {rank=same; computers,machine}
}
-->
<svg width="542pt" height="116pt" viewBox="0.00 0.00 542.31 116.00" xmlns="http://www.w3.org/2000/svg" xmlns:xlink="http://www.w3.org/1999/xlink"> <g id="graph0" class="graph" transform="scale(1 1) rotate(0) translate(4 112)"> <title>G</title> <polygon fill="transparent" stroke="transparent" points="-4,4 -4,-112 538.3115,-112 538.3115,4 -4,4"/> <!-- source --> <g id="node1" class="node"> <title>source</title> <ellipse fill="none" stroke="#000000" cx="107.0449" cy="-18" rx="60.7966" ry="18"/> <text text-anchor="middle" x="107.0449" y="-13.8" font-family="Times,serif" font-size="14.00" fill="#000000">Source Code</text> </g> <!-- machine --> <g id="node2" class="node"> <title>machine</title> <ellipse fill="none" stroke="#000000" cx="417.0814" cy="-18" rx="67.7391" ry="18"/> <text text-anchor="middle" x="417.0814" y="-13.8" font-family="Times,serif" font-size="14.00" fill="#000000">Machine Code</text> </g> <!-- source&#45;&gt;machine --> <g id="edge1" class="edge"> <title>source&#45;&gt;machine</title> <path fill="none" stroke="#000000" d="M167.9282,-18C216.9671,-18 286.2333,-18 339.2895,-18"/> <polygon fill="#000000" stroke="#000000" points="339.336,-21.5001 349.336,-18 339.3359,-14.5001 339.336,-21.5001"/> <text text-anchor="middle" x="256.9706" y="-22.2" font-family="Times,serif" font-size="14.00" fill="#000000">compiler</text> </g> <!-- humans --> <g id="node3" class="node"> <title>humans</title> <ellipse fill="none" stroke="transparent" cx="107.0449" cy="-90" rx="107.0898" ry="18"/> <text text-anchor="middle" x="107.0449" y="-85.8" font-family="Times,serif" font-size="14.00" fill="#000000">what humans understand</text> </g> <!-- humans&#45;&gt;source --> <g id="edge2" class="edge"> <title>humans&#45;&gt;source</title> <path fill="none" stroke="#ff0000" d="M107.0449,-71.8594C107.0449,-63.2681 107.0449,-54.6768 107.0449,-46.0854"/> <polygon fill="#ff0000" stroke="#ff0000" points="110.545,-46 107.0449,-36 103.545,-46 110.545,-46"/> </g> <!-- computers --> <g id="node4" class="node"> <title>computers</title> <ellipse fill="none" stroke="transparent" cx="417.0814" cy="-90" rx="117.4606" ry="18"/> <text text-anchor="middle" x="417.0814" y="-85.8" font-family="Times,serif" font-size="14.00" fill="#000000">what computers understand</text> </g> <!-- computers&#45;&gt;machine --> <g id="edge3" class="edge"> <title>computers&#45;&gt;machine</title> <path fill="none" stroke="#ff0000" d="M417.0814,-71.8594C417.0814,-63.2681 417.0814,-54.6768 417.0814,-46.0854"/> <polygon fill="#ff0000" stroke="#ff0000" points="420.5815,-46 417.0814,-36 413.5815,-46 420.5815,-46"/> </g> </g> </svg> 